::::: UnKnOwN Presents :::::


:::: Larry Crowne 2011 CAM ::::


::Description::


Encoded By .......:UnKnOwN
Runtime ..........:1:34
IMDb URL .........:http://www.imdb.com/title/tt1583420/
Language .........:English
File Size ........:970mb
Release Date ......... 2011
Source ......... Russian/fu
File Type ......... Single AVI
PS3 Compatible ....... Go find out
Genre ......... Comedy


::Video::


ID: 0
Format: MPEG-4 Visual
Format profile: Advanced Simple@L5
Format settings, BVOP: Yes
Format settings, QPel: No
Format settings, GMC: No warppoints
Format settings, Matrix: Custom
Codec ID: XVID
Codec ID/Hint: XviD
Duration: 1h 49mn
Bit rate: 1 530 Kbps
Width: 640pixels
Height: 300 pixels
Display aspect ratio: 2.2.1
Frame rate: 25.000 fps
Color space: YUV
Chroma subsampling: 4:2:0
Bit depth: 8 bits
Scan type: Progressive
Bits/(Pixel*Frame): 0.234
Stream size: 892 MiB (86%)
Writing library: XviD 1.2.1 (UTC 2008-12-04)


::Audio::


ID: 1
Format: MPEG-Audio
Format/Info: Version 1
Mode extension: Layer 3
Codec ID: 55
Duration: 1h 34mn
Bit rate mode: Constant
Bit rate: 128 Kbps
Channel(s): 2 channels
Channel positions: Front: L R
Sampling rate: 48.0 KHz
Bit depth: 16 bits
Stream size: 302 MiB
Alignment: Aligned on interleaves
Interleave, duration: 42 ms (1.00 video frame)
Interleave, preload duration: 512 ms


::SYSPNOSIS::


After losing his job, a middle-aged man reinvents himself by
going back to college


::RELEASE INFO::


56 cuts for audio,Colors adjusted denoiser bla bla.Came out nice
Audio cleaned and muxed back very watchable cam enjoy or not
Sample included.


::More Information::

 
http://leetleech.org/images/29883331518805460810.png


::Screens::

 
http://leetleech.org/images/87883543132581579858.png
 
http://leetleech.org/images/58772709808331200445.png
 
http://leetleech.org/images/81989764506639723616.png


ENJOY!
